<svg width="495" height="379" viewBox="0 0 495 379" fill="none" xmlns="http://www.w3.org/2000/svg">
<path d="M26.3086 70.1818H87.7433L130.002 173.165H132.132L174.391 70.1818H235.826V252H187.53V146.886H186.11L145.627 250.58H116.507L76.0245 146.176H74.6041V252H26.3086V70.1818ZM259.219 70.1818H320.653L362.912 173.165H365.043L407.301 70.1818H468.736V252H420.44V146.886H419.02L378.537 250.58H349.418L308.935 146.176H307.514V252H259.219V70.1818Z" fill="black"/>
<path d="M24.9517 330V290.58H31.3237L35.4277 303.324C35.8237 304.476 36.1837 305.628 36.5077 306.78C36.8317 307.896 37.0657 308.76 37.2097 309.372C37.3897 308.76 37.6237 307.896 37.9117 306.78C38.1997 305.628 38.5237 304.458 38.8837 303.27L42.7717 290.58H49.1437V330H44.3917V315.69C44.3917 314.106 44.4457 312.306 44.5537 310.29C44.6617 308.274 44.8057 306.222 44.9857 304.134C45.1657 302.01 45.3457 299.994 45.5257 298.086C45.7417 296.142 45.9217 294.45 46.0657 293.01L39.6937 312.72H34.5637L28.1377 293.01C28.3177 294.414 28.4977 296.052 28.6777 297.924C28.8577 299.76 29.0197 301.722 29.1637 303.81C29.3077 305.862 29.4337 307.914 29.5417 309.966C29.6497 312.018 29.7037 313.926 29.7037 315.69V330H24.9517ZM69.4266 330.54C67.0506 330.54 64.9986 330.09 63.2706 329.19C61.5786 328.29 60.2646 326.994 59.3286 325.302C58.4286 323.574 57.9786 321.54 57.9786 319.2V301.38C57.9786 299.004 58.4286 296.97 59.3286 295.278C60.2646 293.586 61.5786 292.29 63.2706 291.39C64.9986 290.49 67.0506 290.04 69.4266 290.04C71.8026 290.04 73.8366 290.49 75.5286 291.39C77.2566 292.29 78.5706 293.586 79.4706 295.278C80.4066 296.97 80.8746 298.986 80.8746 301.326V319.2C80.8746 321.54 80.4066 323.574 79.4706 325.302C78.5706 326.994 77.2566 328.29 75.5286 329.19C73.8366 330.09 71.8026 330.54 69.4266 330.54ZM69.4266 326.166C71.5506 326.166 73.1706 325.572 74.2866 324.384C75.4386 323.16 76.0146 321.432 76.0146 319.2V301.38C76.0146 299.148 75.4386 297.438 74.2866 296.25C73.1706 295.026 71.5506 294.414 69.4266 294.414C67.3386 294.414 65.7186 295.026 64.5666 296.25C63.4146 297.438 62.8386 299.148 62.8386 301.38V319.2C62.8386 321.432 63.4146 323.16 64.5666 324.384C65.7186 325.572 67.3386 326.166 69.4266 326.166ZM90.5735 330V290.58H100.779C103.335 290.58 105.531 291.066 107.367 292.038C109.239 293.01 110.679 294.378 111.687 296.142C112.731 297.906 113.253 299.994 113.253 302.406V318.12C113.253 320.532 112.731 322.638 111.687 324.438C110.679 326.202 109.239 327.57 107.367 328.542C105.531 329.514 103.335 330 100.779 330H90.5735ZM95.4335 325.68H100.779C103.155 325.68 105.009 325.014 106.341 323.682C107.709 322.35 108.393 320.496 108.393 318.12V302.406C108.393 300.066 107.709 298.23 106.341 296.898C105.009 295.566 103.155 294.9 100.779 294.9H95.4335V325.68ZM123.384 330V290.58H146.064V295.008H128.19V307.212H144.174V311.586H128.19V325.572H146.064V330H123.384ZM155.223 330V290.58H161.703L173.745 324.33C173.673 323.43 173.583 322.332 173.475 321.036C173.403 319.704 173.331 318.318 173.259 316.878C173.223 315.402 173.205 314.016 173.205 312.72V290.58H177.903V330H171.423L159.435 296.25C159.507 297.114 159.579 298.212 159.651 299.544C159.723 300.84 159.777 302.226 159.813 303.702C159.885 305.142 159.921 306.528 159.921 307.86V330H155.223ZM219.225 330V290.58H225.597L229.701 303.324C230.097 304.476 230.457 305.628 230.781 306.78C231.105 307.896 231.339 308.76 231.483 309.372C231.663 308.76 231.897 307.896 232.185 306.78C232.473 305.628 232.797 304.458 233.157 303.27L237.045 290.58H243.417V330H238.665V315.69C238.665 314.106 238.719 312.306 238.827 310.29C238.935 308.274 239.079 306.222 239.259 304.134C239.439 302.01 239.619 299.994 239.799 298.086C240.015 296.142 240.195 294.45 240.339 293.01L233.967 312.72H228.837L222.411 293.01C222.591 294.414 222.771 296.052 222.951 297.924C223.131 299.76 223.293 301.722 223.437 303.81C223.581 305.862 223.707 307.914 223.815 309.966C223.923 312.018 223.977 313.926 223.977 315.69V330H219.225ZM250.2 330L260.46 290.58H266.994L277.2 330H272.286L269.694 319.524H257.76L255.168 330H250.2ZM258.732 315.42H268.668L265.644 303.27C265.068 300.966 264.618 299.04 264.294 297.492C263.97 295.944 263.772 294.936 263.7 294.468C263.628 294.936 263.43 295.944 263.106 297.492C262.782 299.04 262.332 300.948 261.756 303.216L258.732 315.42ZM284.847 330V290.58H289.707V307.482H295.539L304.287 290.58H309.579L299.805 309.534L310.119 330H304.557L295.377 311.748H289.707V330H284.847ZM317.658 330V290.58H340.338V295.008H322.464V307.212H338.448V311.586H322.464V325.572H340.338V330H317.658ZM358.407 330V294.954H347.607V290.526H374.067V294.954H363.267V330H358.407ZM382.686 330V325.572H390.732V295.008H382.686V290.58H403.746V295.008H395.7V325.572H403.746V330H382.686ZM414.255 330V290.58H420.735L432.777 324.33C432.705 323.43 432.615 322.332 432.507 321.036C432.435 319.704 432.363 318.318 432.291 316.878C432.255 315.402 432.237 314.016 432.237 312.72V290.58H436.935V330H430.455L418.467 296.25C418.539 297.114 418.611 298.212 418.683 299.544C418.755 300.84 418.809 302.226 418.845 303.702C418.917 305.142 418.953 306.528 418.953 307.86V330H414.255ZM458.189 330.54C455.813 330.54 453.743 330.09 451.979 329.19C450.251 328.29 448.901 326.994 447.929 325.302C446.993 323.574 446.525 321.54 446.525 319.2V301.38C446.525 299.004 446.993 296.97 447.929 295.278C448.901 293.586 450.251 292.29 451.979 291.39C453.743 290.49 455.813 290.04 458.189 290.04C460.565 290.04 462.617 290.508 464.345 291.444C466.073 292.344 467.405 293.64 468.341 295.332C469.277 297.024 469.745 299.04 469.745 301.38H464.885C464.885 299.148 464.291 297.438 463.103 296.25C461.951 295.026 460.313 294.414 458.189 294.414C456.065 294.414 454.391 295.008 453.167 296.196C451.979 297.384 451.385 299.094 451.385 301.326V319.2C451.385 321.432 451.979 323.16 453.167 324.384C454.391 325.608 456.065 326.22 458.189 326.22C460.313 326.22 461.951 325.608 463.103 324.384C464.291 323.16 464.885 321.432 464.885 319.2V314.34H456.893V309.912H469.745V319.2C469.745 321.504 469.277 323.52 468.341 325.248C467.405 326.94 466.073 328.254 464.345 329.19C462.617 330.09 460.565 330.54 458.189 330.54Z" fill="black"/>
</svg>
